<?xml version="1.0" encoding="UTF-8" standalone="no"?>
<!-- Generator: Adobe Illustrator 16.0.0, SVG Export Plug-In . SVG Version: 6.00 Build 0)  -->

<svg
   xmlns:dc="http://purl.org/dc/elements/1.1/"
   xmlns:cc="http://creativecommons.org/ns#"
   xmlns:rdf="http://www.w3.org/1999/02/22-rdf-syntax-ns#"
   xmlns:svg="http://www.w3.org/2000/svg"
   xmlns="http://www.w3.org/2000/svg"
   xmlns:sodipodi="http://sodipodi.sourceforge.net/DTD/sodipodi-0.dtd"
   xmlns:inkscape="http://www.inkscape.org/namespaces/inkscape"
   version="1.1"
   id="Layer_1"
   x="0px"
   y="0px"
   width="41.622452"
   height="41.795826"
   viewBox="0 0 41.622449 41.795825"
   enable-background="new 0 0 595.28 841.89"
   xml:space="preserve"
   sodipodi:docname="SAMO_LIMUN_ZELENI.svg"
   inkscape:version="0.92.4 (5da689c313, 2019-01-14)"><metadata
   id="metadata41"><rdf:RDF><cc:Work
       rdf:about=""><dc:format>image/svg+xml</dc:format><dc:type
         rdf:resource="http://purl.org/dc/dcmitype/StillImage" /><dc:title></dc:title></cc:Work></rdf:RDF></metadata><defs
   id="defs39" /><sodipodi:namedview
   pagecolor="#ffffff"
   bordercolor="#666666"
   borderopacity="1"
   objecttolerance="10"
   gridtolerance="10"
   guidetolerance="10"
   inkscape:pageopacity="0"
   inkscape:pageshadow="2"
   inkscape:window-width="1920"
   inkscape:window-height="1017"
   id="namedview37"
   showgrid="false"
   fit-margin-top="0"
   fit-margin-left="0"
   fit-margin-right="0"
   fit-margin-bottom="0"
   inkscape:zoom="3.1714774"
   inkscape:cx="-85.164006"
   inkscape:cy="-5.1571024"
   inkscape:window-x="-8"
   inkscape:window-y="-8"
   inkscape:window-maximized="1"
   inkscape:current-layer="g34" />
<g
   id="g34"
   transform="translate(-274.5854,-355.13773)">
	<g
   id="g18">
		
		
		
		
		
		
		
		
	</g>
	<path
   d="m 293.07485,395.28773 c 0.164,-7.621 0.055,-11.795 -0.014,-13.404 -0.107,-2.464 0.32,-2.178 -1.787,-0.072 -2.178,2.178 -3.854,3.712 -8.569,8.854 -1.073,1.172 -0.226,2.402 1.472,3.563 0.991,0.677 3.551,1.925 5.129,2.353 1.574,0.429 3.73,0.604 3.769,-1.294 z"
   id="path20"
   inkscape:connector-curvature="0"
   style="fill:#006838" />
	<path
   d="m 296.06685,395.35773 c -0.159,-7.619 -0.054,-11.793 0.017,-13.401 0.11,-2.463 -0.319,-2.178 1.787,-0.073 2.178,2.177 3.855,3.714 8.571,8.854 1.072,1.172 0.229,2.402 -1.473,3.563 -0.989,0.677 -3.548,1.925 -5.132,2.354 -1.571,0.426 -3.728,0.606 -3.77,-1.297 z"
   id="path22"
   inkscape:connector-curvature="0"
   style="fill:#006838" />
	<path
   d="m 312.83785,377.85873 c -7.619,-0.16 -11.793,-0.053 -13.404,0.018 -2.463,0.106 -2.177,-0.322 -0.07,1.785 2.178,2.176 3.714,3.855 8.853,8.569 1.176,1.074 2.405,0.228 3.566,-1.471 0.677,-0.99 1.925,-3.551 2.354,-5.129 0.425,-1.576 0.603,-3.731 -1.299,-3.772 z"
   id="path24"
   inkscape:connector-curvature="0"
   style="fill:#006838" />
	<path
   d="m 276.17285,375.24873 c 7.621,0.106 11.794,-0.031 13.405,-0.112 2.461,-0.123 2.182,0.308 0.058,-1.783 -2.193,-2.164 -3.739,-3.831 -8.912,-8.507 -1.178,-1.066 -2.405,-0.211 -3.554,1.493 -0.669,0.995 -1.902,3.567 -2.317,5.146 -0.417,1.578 -0.581,3.736 1.32,3.763 z"
   id="path26"
   inkscape:connector-curvature="0"
   style="fill:#006838" />
	<path
   d="m 276.23185,378.03773 c 7.618,-0.215 11.795,-0.135 13.404,-0.077 2.464,0.09 2.176,-0.337 0.082,1.784 -2.163,2.193 -3.687,3.88 -8.793,8.631 -1.162,1.08 -2.4,0.245 -3.573,-1.445 -0.685,-0.986 -1.95,-3.538 -2.388,-5.114 -0.438,-1.572 -0.633,-3.726 1.268,-3.779 z"
   id="path28"
   inkscape:connector-curvature="0"
   style="fill:#006838" />
	<path
   d="m 316.20785,361.13973 c 0,0 -0.633,0.523 -0.875,1.344 -0.174,0.596 -0.219,1.696 -0.454,2.657 -0.517,2.104 -1.481,3.801 -2.733,5.191 -0.737,0.817 -2.174,2.16 -4.351,2.805 -1.344,0.4 -1.932,0.557 -3.373,0.502 -1.64,-0.063 -2.503,-0.323 -3.272,-0.602 -1.238,-0.448 -2.37,-0.255 -3.085,0.163 -0.717,0.42 -0.714,1.035 -0.714,1.035 0,0 -0.453,0.21 -0.809,0.213 -0.354,0.002 -0.398,-0.119 -0.37,-0.292 0.025,-0.172 0.874,-0.839 1.323,-1.391 0.438,-0.543 0.619,-1.67 0.878,-2.933 0.366,-1.783 0.91,-4.113 2.093,-5.825 1.264,-1.832 2.9,-3.532 6.078,-4.185 2.625,-0.54 4.515,-0.317 6.364,0.124 1.59,0.378 3.3,1.194 3.3,1.194 z"
   id="path30"
   inkscape:connector-curvature="0"
   style="fill:#006838" />
	<path
   d="m 291.29985,355.13773 c 0,0 0.011,0.563 -0.308,1.058 -0.23,0.356 -0.783,0.873 -1.178,1.427 -0.863,1.209 -1.312,2.474 -1.473,3.748 -0.097,0.748 -0.15,2.099 0.489,3.519 0.395,0.878 0.577,1.254 1.252,1.979 0.768,0.825 1.29,1.159 1.781,1.434 0.785,0.443 1.193,1.117 1.296,1.676 0.103,0.56 -0.219,0.835 -0.219,0.835 0,0 0.095,0.33 0.253,0.516 0.158,0.186 0.241,0.154 0.318,0.064 0.077,-0.093 0.043,-0.834 0.129,-1.315 0.086,-0.469 0.591,-1.069 1.132,-1.77 0.763,-0.989 1.729,-2.317 2.09,-3.699 0.386,-1.48 0.537,-3.091 -0.548,-5.039 -0.895,-1.605 -1.859,-2.488 -2.915,-3.252 -0.908,-0.659 -2.099,-1.181 -2.099,-1.181 z"
   id="path32"
   inkscape:connector-curvature="0"
   style="fill:#006838" />
</g>
</svg>