<?xml version="1.0" encoding="UTF-8" standalone="no"?>
<!-- Generator: Adobe Illustrator 16.0.0, SVG Export Plug-In . SVG Version: 6.00 Build 0)  -->

<svg
   xmlns:dc="http://purl.org/dc/elements/1.1/"
   xmlns:cc="http://creativecommons.org/ns#"
   xmlns:rdf="http://www.w3.org/1999/02/22-rdf-syntax-ns#"
   xmlns:svg="http://www.w3.org/2000/svg"
   xmlns="http://www.w3.org/2000/svg"
   xmlns:sodipodi="http://sodipodi.sourceforge.net/DTD/sodipodi-0.dtd"
   xmlns:inkscape="http://www.inkscape.org/namespaces/inkscape"
   version="1.1"
   id="Layer_1"
   x="0px"
   y="0px"
   width="229.007"
   height="80.363998"
   viewBox="0 0 229.00699 80.363997"
   enable-background="new 0 0 595.28 841.89"
   xml:space="preserve"
   sodipodi:docname="LOGO_SARENI_BIJELI.svg"
   inkscape:version="0.92.4 (5da689c313, 2019-01-14)"><metadata
   id="metadata39"><rdf:RDF><cc:Work
       rdf:about=""><dc:format>image/svg+xml</dc:format><dc:type
         rdf:resource="http://purl.org/dc/dcmitype/StillImage" /><dc:title></dc:title></cc:Work></rdf:RDF></metadata><defs
   id="defs37" /><sodipodi:namedview
   pagecolor="#ffffff"
   bordercolor="#666666"
   borderopacity="1"
   objecttolerance="10"
   gridtolerance="10"
   guidetolerance="10"
   inkscape:pageopacity="0"
   inkscape:pageshadow="2"
   inkscape:window-width="1920"
   inkscape:window-height="1017"
   id="namedview35"
   showgrid="false"
   inkscape:zoom="0.79286936"
   inkscape:cx="150.10395"
   inkscape:cy="-20.481892"
   inkscape:window-x="-8"
   inkscape:window-y="-8"
   inkscape:window-maximized="1"
   inkscape:current-layer="g18"
   fit-margin-top="0"
   fit-margin-left="0"
   fit-margin-right="0"
   fit-margin-bottom="0" />
<g
   id="g18"
   transform="translate(-184.61,-324.736)">
	<path
   d="m 214.718,360.057 v 6.756 H 186.61 v -36.87 h 9.185 v 30.114 z"
   id="path2"
   style="fill:#ffffff"
   inkscape:connector-curvature="0" />
	<path
   d="m 255.802,360.057 v 6.756 h -27.184 v -36.87 h 26.815 v 6.756 h -17.63 v 7.733 h 16.812 v 6.757 h -16.812 v 8.868 z"
   id="path4"
   style="fill:#ffffff"
   inkscape:connector-curvature="0" />
	<path
   d="m 291.305,343.614 11.85,-13.671 h 7.984 v 36.87 h -9.185 v -23.014 l -9.961,11.56 h -1.379 l -9.958,-11.56 v 23.014 h -9.185 v -36.87 h 7.975 z"
   id="path6"
   style="fill:#ffffff"
   inkscape:connector-curvature="0" />
	<path
   d="m 412.617,329.943 v 36.87 h -7.757 l -20.351,-23.621 v 23.621 h -9.185 v -36.87 h 8.422 l 19.686,22.539 v -22.539 z"
   id="path8"
   style="fill:#ffffff"
   inkscape:connector-curvature="0" />
	<path
   d="m 199.037,393.5 5.925,-6.835 h 3.992 V 405.1 h -4.592 v -11.507 l -4.98,5.78 h -0.689 l -4.979,-5.78 V 405.1 h -4.592 v -18.435 h 3.987 z"
   id="path10"
   style="fill:#ffffff"
   inkscape:connector-curvature="0" />
	<path
   d="M 267.779,386.665 V 405.1 h -4.592 v -18.435 z"
   id="path12"
   style="fill:#ffffff"
   inkscape:connector-curvature="0" />
	<path
   d="M 340.699,386.665 V 405.1 H 336.82 L 326.645,393.289 V 405.1 h -4.593 v -18.435 h 4.211 l 9.843,11.27 v -11.27 z"
   id="path14"
   style="fill:#ffffff"
   inkscape:connector-curvature="0" />
	<path
   d="m 411.481,386.665 v 3.378 h -6.678 V 405.1 h -4.592 v -15.057 h -6.678 v -3.378 z"
   id="path16"
   style="fill:#ffffff"
   inkscape:connector-curvature="0" />
</g>
<path
   d="m 157.149,40.715 c 0.166,-7.729 0.055,-11.961 -0.013,-13.593 -0.11,-2.497 0.324,-2.208 -1.813,-0.072 -2.208,2.21 -3.909,3.766 -8.689,8.98 -1.09,1.188 -0.23,2.437 1.49,3.613 1.007,0.686 3.603,1.951 5.202,2.386 1.596,0.435 3.783,0.614 3.823,-1.314 z"
   id="path20"
   inkscape:connector-curvature="0"
   style="fill:#fff200" />
<path
   d="m 160.182,40.788 c -0.16,-7.729 -0.055,-11.961 0.018,-13.591 0.111,-2.498 -0.323,-2.208 1.813,-0.075 2.207,2.21 3.908,3.768 8.691,8.981 1.089,1.188 0.231,2.436 -1.493,3.614 -1.004,0.686 -3.6,1.953 -5.204,2.385 -1.595,0.433 -3.783,0.615 -3.825,-1.314 z"
   id="path22"
   inkscape:connector-curvature="0"
   style="fill:#fff200" />
<path
   d="m 177.192,23.041 c -7.729,-0.164 -11.961,-0.056 -13.595,0.017 -2.497,0.108 -2.207,-0.326 -0.071,1.812 2.207,2.207 3.765,3.908 8.979,8.69 1.19,1.088 2.438,0.23 3.616,-1.492 0.687,-1.004 1.951,-3.602 2.388,-5.201 0.43,-1.599 0.612,-3.783 -1.317,-3.826 z"
   id="path24"
   inkscape:connector-curvature="0"
   style="fill:#fff200" />
<path
   d="m 140.007,20.396 c 7.729,0.108 11.959,-0.032 13.594,-0.115 2.498,-0.124 2.214,0.313 0.061,-1.808 -2.227,-2.194 -3.795,-3.886 -9.039,-8.628 -1.196,-1.081 -2.44,-0.214 -3.604,1.514 -0.681,1.009 -1.932,3.618 -2.35,5.219 -0.425,1.601 -0.591,3.789 1.338,3.818 z"
   id="path26"
   inkscape:connector-curvature="0"
   style="fill:#fff200" />
<path
   d="m 140.066,23.224 c 7.727,-0.218 11.963,-0.137 13.596,-0.078 2.495,0.091 2.206,-0.343 0.081,1.81 -2.193,2.223 -3.737,3.935 -8.918,8.752 -1.177,1.095 -2.433,0.249 -3.622,-1.466 -0.694,-0.997 -1.979,-3.585 -2.423,-5.184 -0.444,-1.595 -0.641,-3.78 1.286,-3.834 z"
   id="path28"
   inkscape:connector-curvature="0"
   style="fill:#fff200" />
<path
   d="m 180.609,6.086 c 0,0 -0.643,0.53 -0.889,1.363 -0.176,0.604 -0.222,1.72 -0.461,2.693 -0.522,2.136 -1.501,3.856 -2.77,5.266 -0.747,0.827 -2.204,2.19 -4.414,2.844 -1.362,0.408 -1.959,0.565 -3.42,0.509 -1.662,-0.064 -2.538,-0.327 -3.318,-0.608 -1.257,-0.455 -2.404,-0.259 -3.129,0.164 -0.728,0.424 -0.724,1.049 -0.724,1.049 0,0 -0.46,0.213 -0.82,0.216 -0.359,0.003 -0.404,-0.12 -0.375,-0.295 0.024,-0.174 0.885,-0.852 1.341,-1.411 0.446,-0.551 0.628,-1.695 0.892,-2.974 0.372,-1.808 0.923,-4.171 2.123,-5.909 1.28,-1.854 2.939,-3.582 6.164,-4.242 2.66,-0.547 4.578,-0.323 6.454,0.125 1.611,0.384 3.346,1.21 3.346,1.21 z"
   id="path30"
   inkscape:connector-curvature="0"
   style="fill:#39b54a" />
<path
   d="m 155.349,0 c 0,0 0.009,0.569 -0.313,1.071 -0.232,0.361 -0.794,0.885 -1.194,1.448 -0.876,1.227 -1.329,2.509 -1.494,3.8 -0.098,0.758 -0.152,2.129 0.497,3.568 0.4,0.891 0.586,1.273 1.271,2.008 0.776,0.836 1.308,1.176 1.805,1.455 0.798,0.448 1.209,1.132 1.314,1.698 0.104,0.57 -0.22,0.849 -0.22,0.849 0,0 0.095,0.334 0.255,0.523 0.161,0.188 0.245,0.156 0.323,0.064 0.078,-0.093 0.043,-0.845 0.132,-1.335 0.086,-0.475 0.598,-1.083 1.146,-1.794 0.774,-1.004 1.755,-2.349 2.119,-3.751 0.392,-1.5 0.546,-3.134 -0.556,-5.109 C 159.527,2.869 158.549,1.973 157.479,1.197 156.556,0.529 155.349,0 155.349,0 Z"
   id="path32"
   inkscape:connector-curvature="0"
   style="fill:#39b54a" />
</svg>