<?xml version="1.0" encoding="UTF-8" standalone="no"?>
<!DOCTYPE svg PUBLIC "-//W3C//DTD SVG 1.1//EN" "http://www.w3.org/Graphics/SVG/1.1/DTD/svg11.dtd">
<svg version="1.1" xmlns="http://www.w3.org/2000/svg" xmlns:xlink="http://www.w3.org/1999/xlink" preserveAspectRatio="xMidYMid meet" viewBox="0 0 120 55" width="60" height="28"><defs><path d="M7.04 4.07C7.04 15.28 7.04 21.5 7.04 22.74C7.04 24.79 7.62 26.01 8.77 26.4C8.2 27.54 7.24 28.11 5.87 28.11C4.21 28.11 3.38 26.89 3.38 24.45C3.38 23.15 3.38 16.67 3.38 5L7.04 4.07Z" id="aESfK0U4Y"></path><path d="M24.58 10.47L25.03 10.53L25.47 10.61L25.89 10.71L26.31 10.83L26.71 10.97L27.09 11.13L27.46 11.32L27.82 11.53L28.16 11.76L28.49 12.01L28.81 12.29L29.11 12.59L29.39 12.9L29.66 13.23L29.9 13.56L30.12 13.91L30.32 14.28L30.5 14.65L30.66 15.04L30.8 15.43L30.91 15.84L31.01 16.27L31.08 16.7L31.13 17.15L31.17 17.6L31.18 18.07L31.18 18.18L31.17 18.29L31.16 18.41L31.15 18.54L31.14 18.68L31.12 18.82L31.1 18.97L31.08 19.13L31.05 19.29L31.02 19.47L30.99 19.65L30.95 19.83L30.91 20.03L30.87 20.23L19.65 20.23L19.67 20.51L19.71 20.78L19.75 21.04L19.8 21.29L19.87 21.54L19.94 21.77L20.03 22L20.13 22.21L20.23 22.42L20.35 22.62L20.49 22.8L20.63 22.98L20.78 23.16L20.94 23.32L21.12 23.47L21.3 23.61L21.49 23.74L21.69 23.86L21.9 23.96L22.11 24.06L22.34 24.14L22.57 24.22L22.81 24.28L23.06 24.33L23.32 24.37L23.58 24.4L23.86 24.41L24.14 24.42L24.49 24.41L24.83 24.39L25.16 24.35L25.47 24.31L25.78 24.24L26.07 24.16L26.35 24.07L26.61 23.97L26.87 23.85L27.11 23.71L27.34 23.57L27.55 23.4L27.76 23.23L27.95 23.04L29.37 26L29.09 26.23L28.78 26.44L28.46 26.63L28.11 26.81L27.75 26.97L27.37 27.12L26.96 27.24L26.54 27.35L26.1 27.45L25.64 27.52L25.16 27.58L24.66 27.62L24.14 27.65L23.6 27.66L23.09 27.65L22.6 27.61L22.13 27.56L21.67 27.48L21.22 27.37L20.8 27.25L20.38 27.1L19.98 26.93L19.6 26.74L19.23 26.52L18.88 26.28L18.54 26.02L18.22 25.74L17.92 25.43L17.63 25.11L17.36 24.76L17.12 24.4L16.89 24.02L16.69 23.62L16.51 23.2L16.35 22.77L16.21 22.32L16.09 21.84L16 21.36L15.92 20.85L15.87 20.33L15.84 19.78L15.83 19.22L15.84 18.67L15.87 18.13L15.93 17.61L16.02 17.1L16.12 16.61L16.25 16.13L16.4 15.67L16.58 15.23L16.78 14.79L17 14.38L17.24 13.98L17.51 13.59L17.81 13.22L18.12 12.87L18.45 12.53L18.8 12.22L19.15 11.93L19.51 11.67L19.88 11.44L20.26 11.23L20.65 11.04L21.04 10.88L21.45 10.74L21.87 10.63L22.29 10.54L22.73 10.48L23.17 10.44L23.63 10.43L24.11 10.44L24.58 10.47ZM21.14 14.58L20.32 15.72L19.79 17.32L27.5 17.32L27.12 15.72L26.35 14.58L25.21 13.9L23.69 13.67L22.27 13.9L21.14 14.58Z" id="bEzihUDC8"></path><path d="M57.54 16.94C57.54 14.76 56.62 13.67 54.77 13.67C54.22 13.67 53.7 13.84 53.19 14.18C52.68 14.53 52.32 14.92 52.12 15.36C52.12 16.16 52.12 20.16 52.12 27.35L48.45 27.35C48.45 20.74 48.45 17.07 48.45 16.34C48.45 15.52 48.21 14.87 47.73 14.39C47.26 13.91 46.58 13.67 45.71 13.67C45.25 13.67 44.75 13.85 44.21 14.21C43.67 14.58 43.27 14.97 43.03 15.41C43.03 16.2 43.03 20.18 43.03 27.35L39.36 27.35L39.36 10.74L41.89 10.74C42.33 11.61 42.58 12.1 42.63 12.2C43.65 11.02 44.96 10.43 46.58 10.43C48.66 10.43 50.23 11.03 51.28 12.23C51.74 11.68 52.38 11.24 53.2 10.92C54.02 10.59 54.84 10.43 55.67 10.43C57.42 10.43 58.78 10.96 59.75 12.02C60.72 13.08 61.21 14.53 61.21 16.38C61.21 17.12 61.21 20.77 61.21 27.35L57.54 27.35C57.54 21.11 57.54 17.64 57.54 16.94Z" id="c2oOuhxDW6"></path><path d="M109.12 17.75C109.12 16.33 108.86 15.3 108.35 14.65C107.84 14 107 13.67 105.83 13.67C105.3 13.67 104.72 13.83 104.11 14.15C103.5 14.47 103.02 14.87 102.68 15.35C102.68 16.15 102.68 20.15 102.68 27.35L99.02 27.35L99.02 10.74L101.66 10.74C102.06 11.67 102.28 12.19 102.33 12.29C103.33 11.05 104.8 10.43 106.74 10.43C108.61 10.43 110.08 11.02 111.16 12.21C112.24 13.39 112.78 15.04 112.78 17.16C112.78 17.84 112.78 21.24 112.78 27.35L109.12 27.35C109.12 21.59 109.12 18.39 109.12 17.75Z" id="cAMVA9sEr"></path><path d="M12.61 44.64C12.61 43.55 12.15 43.01 11.23 43.01C10.95 43.01 10.69 43.09 10.43 43.26C10.18 43.43 10 43.63 9.9 43.85C9.9 44.25 9.9 46.25 9.9 49.85L8.07 49.85C8.07 46.54 8.07 44.71 8.07 44.34C8.07 43.93 7.95 43.61 7.71 43.37C7.47 43.13 7.13 43.01 6.7 43.01C6.47 43.01 6.22 43.1 5.94 43.28C5.67 43.46 5.48 43.66 5.35 43.88C5.35 44.27 5.35 46.26 5.35 49.85L3.52 49.85L3.52 41.54L4.78 41.54C5.01 41.98 5.13 42.22 5.16 42.27C5.66 41.68 6.32 41.39 7.13 41.39C8.17 41.39 8.95 41.69 9.48 42.29C9.71 42.01 10.03 41.79 10.44 41.63C10.85 41.47 11.26 41.39 11.67 41.39C12.55 41.39 13.23 41.65 13.71 42.18C14.2 42.71 14.44 43.44 14.44 44.36C14.44 44.73 14.44 46.56 14.44 49.85L12.61 49.85C12.61 46.72 12.61 44.99 12.61 44.64Z" id="b5ciA8uhgU"></path><path d="M43 49.85L43 43.13L42 43.13L42 41.54L44.86 41.54L44.86 49.85L43 49.85Z" id="d1e5oDSjSY"></path><path d="M78.13 45.05C78.13 44.34 78.01 43.82 77.75 43.49C77.49 43.17 77.07 43.01 76.49 43.01C76.22 43.01 75.94 43.09 75.63 43.25C75.32 43.41 75.09 43.61 74.91 43.84C74.91 44.24 74.91 46.24 74.91 49.85L73.08 49.85L73.08 41.54L74.4 41.54C74.6 42.01 74.72 42.26 74.74 42.32C75.24 41.7 75.97 41.39 76.95 41.39C77.88 41.39 78.62 41.68 79.15 42.27C79.7 42.87 79.97 43.69 79.97 44.75C79.97 45.09 79.97 46.79 79.97 49.85L78.13 49.85C78.13 46.97 78.13 45.37 78.13 45.05Z" id="a31kXWcG8J"></path><path d="M107.4 43.1L107.4 41.54L108.31 41.54L108.31 39.85L110.15 39.14L110.15 41.54L112.3 41.54L112.3 43.1L110.15 43.1C110.15 45.28 110.15 46.49 110.15 46.74C110.15 47.33 110.23 47.75 110.41 48C110.59 48.24 110.89 48.36 111.33 48.36C111.77 48.36 112.18 48.24 112.57 47.98C112.57 48.16 112.57 49.59 112.57 49.77C112.14 49.92 111.53 50 110.75 50C109.97 50 109.36 49.77 108.94 49.3C108.52 48.83 108.31 48.16 108.31 47.3C108.31 47.02 108.31 45.62 108.31 43.1L107.4 43.1Z" id="c4fooqurB6"></path><path d="M79.06 21.54C79 20.13 79.24 20.29 78.09 21.5C76.91 22.75 76 23.63 73.44 26.58C72.86 27.25 73.32 27.96 74.24 28.63C74.78 29.01 76.17 29.73 77.03 29.98C77.88 30.22 79.05 30.32 79.07 29.23C79.16 24.86 79.1 22.46 79.06 21.54Z" id="i2pWOLc3fC"></path><path d="M80.7 21.58C80.76 20.17 80.53 20.33 81.67 21.54C82.85 22.79 83.76 23.67 86.32 26.62C86.91 27.29 86.45 28 85.52 28.67C84.99 29.06 83.6 29.77 82.74 30.02C81.89 30.26 80.72 30.37 80.69 29.27C80.61 24.9 80.66 22.5 80.7 21.58Z" id="dbp5KQP3W3"></path><path d="M82.52 19.24C81.18 19.3 81.34 19.06 82.48 20.26C83.66 21.51 84.5 22.48 87.29 25.18C87.93 25.8 88.59 25.31 89.22 24.34C89.59 23.77 90.27 22.3 90.5 21.39C90.73 20.49 90.83 19.25 89.79 19.23C85.66 19.14 83.4 19.2 82.52 19.24Z" id="c4wLh41Ntd"></path><path d="M77.17 17.67C78.51 17.6 78.36 17.84 77.2 16.64C76.01 15.4 75.18 14.44 72.37 11.76C71.73 11.15 71.06 11.64 70.44 12.62C70.08 13.19 69.41 14.67 69.18 15.57C68.96 16.48 68.87 17.72 69.9 17.73C74.03 17.79 76.3 17.71 77.17 17.67Z" id="b4C4aA8Qo"></path><path d="M77.2 19.29C78.54 19.34 78.38 19.09 77.25 20.31C76.07 21.57 75.25 22.54 72.48 25.27C71.85 25.89 71.17 25.41 70.54 24.44C70.17 23.87 69.48 22.41 69.24 21.5C69 20.6 68.9 19.36 69.93 19.33C74.06 19.21 76.33 19.25 77.2 19.29Z" id="a1OvQhqbMi"></path><path d="M91.15 10.4C91.05 10.75 91.03 11.38 90.9 11.93C90.62 13.14 90.1 14.11 89.42 14.91C89.02 15.38 88.24 16.15 87.06 16.52C86.33 16.75 86.01 16.84 85.23 16.81C84.34 16.77 83.87 16.62 83.45 16.46C82.78 16.2 82.17 16.32 81.78 16.56C81.39 16.8 81.39 17.15 81.39 17.15C81.39 17.15 81.14 17.27 80.95 17.27C80.76 17.27 80.74 17.2 80.75 17.1C80.76 17.01 81.23 16.62 81.47 16.31C81.71 15.99 81.8 15.35 81.95 14.62C82.14 13.6 82.44 12.26 83.08 11.28C83.77 10.23 84.65 9.25 86.38 8.88C87.8 8.57 88.83 8.69 89.83 8.95C90.7 9.16 91.62 9.63 91.62 9.63C91.53 9.79 91.28 9.93 91.15 10.4Z" id="d19v04mUbW"></path><path d="M77.94 6.79C77.82 7 77.52 7.3 77.3 7.61C76.83 8.31 76.59 9.03 76.5 9.77C76.45 10.19 76.42 10.97 76.77 11.79C76.98 12.29 77.08 12.51 77.45 12.92C77.86 13.39 78.15 13.59 78.41 13.74C78.84 14 79.06 14.39 79.12 14.71C79.17 15.03 79 15.19 79 15.19C79 15.19 79.05 15.38 79.13 15.48C79.22 15.59 79.27 15.57 79.31 15.52C79.35 15.47 79.33 15.04 79.38 14.76C79.42 14.49 79.7 14.15 79.99 13.75C80.41 13.18 80.93 12.42 81.13 11.62C81.33 10.78 81.42 9.85 80.83 8.73C80.34 7.81 79.82 7.3 79.25 6.87C78.75 6.49 78.11 6.19 78.11 6.19C78.07 6.31 78.11 6.51 77.94 6.79Z" id="aySsfz2EW"></path></defs><g><g><g><use xlink:href="#aESfK0U4Y" opacity="1" fill="#006838" fill-opacity="1"></use><g><use xlink:href="#aESfK0U4Y" opacity="1" fill-opacity="0" stroke="#000000" stroke-width="1" stroke-opacity="0"></use></g></g><g><use xlink:href="#bEzihUDC8" opacity="1" fill="#006838" fill-opacity="1"></use><g><use xlink:href="#bEzihUDC8" opacity="1" fill-opacity="0" stroke="#000000" stroke-width="1" stroke-opacity="0"></use></g></g><g><use xlink:href="#c2oOuhxDW6" opacity="1" fill="#006838" fill-opacity="1"></use><g><use xlink:href="#c2oOuhxDW6" opacity="1" fill-opacity="0" stroke="#000000" stroke-width="1" stroke-opacity="0"></use></g></g><g><use xlink:href="#cAMVA9sEr" opacity="1" fill="#006838" fill-opacity="1"></use><g><use xlink:href="#cAMVA9sEr" opacity="1" fill-opacity="0" stroke="#000000" stroke-width="1" stroke-opacity="0"></use></g></g><g><use xlink:href="#b5ciA8uhgU" opacity="1" fill="#006838" fill-opacity="1"></use><g><use xlink:href="#b5ciA8uhgU" opacity="1" fill-opacity="0" stroke="#000000" stroke-width="1" stroke-opacity="0"></use></g></g><g><use xlink:href="#d1e5oDSjSY" opacity="1" fill="#006838" fill-opacity="1"></use><g><use xlink:href="#d1e5oDSjSY" opacity="1" fill-opacity="0" stroke="#000000" stroke-width="1" stroke-opacity="0"></use></g></g><g><use xlink:href="#a31kXWcG8J" opacity="1" fill="#006838" fill-opacity="1"></use><g><use xlink:href="#a31kXWcG8J" opacity="1" fill-opacity="0" stroke="#000000" stroke-width="1" stroke-opacity="0"></use></g></g><g><use xlink:href="#c4fooqurB6" opacity="1" fill="#006838" fill-opacity="1"></use><g><use xlink:href="#c4fooqurB6" opacity="1" fill-opacity="0" stroke="#000000" stroke-width="1" stroke-opacity="0"></use></g></g><g><use xlink:href="#i2pWOLc3fC" opacity="1" fill="#006838" fill-opacity="1"></use><g><use xlink:href="#i2pWOLc3fC" opacity="1" fill-opacity="0" stroke="#000000" stroke-width="1" stroke-opacity="0"></use></g></g><g><use xlink:href="#dbp5KQP3W3" opacity="1" fill="#006838" fill-opacity="1"></use><g><use xlink:href="#dbp5KQP3W3" opacity="1" fill-opacity="0" stroke="#000000" stroke-width="1" stroke-opacity="0"></use></g></g><g><use xlink:href="#c4wLh41Ntd" opacity="1" fill="#006838" fill-opacity="1"></use><g><use xlink:href="#c4wLh41Ntd" opacity="1" fill-opacity="0" stroke="#000000" stroke-width="1" stroke-opacity="0"></use></g></g><g><use xlink:href="#b4C4aA8Qo" opacity="1" fill="#006838" fill-opacity="1"></use><g><use xlink:href="#b4C4aA8Qo" opacity="1" fill-opacity="0" stroke="#000000" stroke-width="1" stroke-opacity="0"></use></g></g><g><use xlink:href="#a1OvQhqbMi" opacity="1" fill="#006838" fill-opacity="1"></use><g><use xlink:href="#a1OvQhqbMi" opacity="1" fill-opacity="0" stroke="#000000" stroke-width="1" stroke-opacity="0"></use></g></g><g><use xlink:href="#d19v04mUbW" opacity="1" fill="#006838" fill-opacity="1"></use><g><use xlink:href="#d19v04mUbW" opacity="1" fill-opacity="0" stroke="#000000" stroke-width="1" stroke-opacity="0"></use></g></g><g><use xlink:href="#aySsfz2EW" opacity="1" fill="#006838" fill-opacity="1"></use><g><use xlink:href="#aySsfz2EW" opacity="1" fill-opacity="0" stroke="#000000" stroke-width="1" stroke-opacity="0"></use></g></g></g></g></svg>