<?xml version="1.0" encoding="UTF-8" standalone="no"?>
<!-- Generator: Adobe Illustrator 16.0.0, SVG Export Plug-In . SVG Version: 6.00 Build 0)  -->

<svg
   xmlns:dc="http://purl.org/dc/elements/1.1/"
   xmlns:cc="http://creativecommons.org/ns#"
   xmlns:rdf="http://www.w3.org/1999/02/22-rdf-syntax-ns#"
   xmlns:svg="http://www.w3.org/2000/svg"
   xmlns="http://www.w3.org/2000/svg"
   xmlns:sodipodi="http://sodipodi.sourceforge.net/DTD/sodipodi-0.dtd"
   xmlns:inkscape="http://www.inkscape.org/namespaces/inkscape"
   version="1.1"
   id="Capa_1"
   x="0px"
   y="0px"
   width="791.803px"
   height="791.803px"
   viewBox="0 0 791.803 791.803"
   style="enable-background:new 0 0 791.803 791.803;"
   xml:space="preserve"
   sodipodi:docname="students-cap.svg"
   inkscape:version="0.92.4 (5da689c313, 2019-01-14)"><metadata
   id="metadata43"><rdf:RDF><cc:Work
       rdf:about=""><dc:format>image/svg+xml</dc:format><dc:type
         rdf:resource="http://purl.org/dc/dcmitype/StillImage" /><dc:title></dc:title></cc:Work></rdf:RDF></metadata><defs
   id="defs41" /><sodipodi:namedview
   pagecolor="#ffffff"
   bordercolor="#666666"
   borderopacity="1"
   objecttolerance="10"
   gridtolerance="10"
   guidetolerance="10"
   inkscape:pageopacity="0"
   inkscape:pageshadow="2"
   inkscape:window-width="1920"
   inkscape:window-height="1017"
   id="namedview39"
   showgrid="false"
   inkscape:zoom="0.29805394"
   inkscape:cx="395.90149"
   inkscape:cy="395.90149"
   inkscape:window-x="-8"
   inkscape:window-y="-8"
   inkscape:window-maximized="1"
   inkscape:current-layer="Capa_1" />
<g
   id="g6"
   style="fill:#ffffff">
	<path
   d="M395.904,475.016l-236.203-72.7v71.524v49.896c0,56.133,105.787,101.644,236.274,101.644   c130.48,0,236.285-45.511,236.285-101.644c0-0.442-0.145-0.886-0.154-1.318V402.316L395.904,475.016z"
   id="path2"
   style="fill:#ffffff" />
	<path
   d="M0,318.734l84.383,30.185l7.191-15.401l31-2.635l4.42,4.599l-26.601,6.308l-3.877,11.475   c-0.007,0-60.087,125.604-51.263,187.05c0,0,37.502,22.37,74.988,0l9.962-168v-13.984l55.8-12.588l-3.941,9.705l-41.604,13.529   l19.242,6.874l236.203,72.7l236.201-72.7l159.699-57.116l-395.9-152.313L0,318.734z"
   id="path4"
   style="fill:#ffffff" />
</g>
<g
   id="g8">
</g>
<g
   id="g10">
</g>
<g
   id="g12">
</g>
<g
   id="g14">
</g>
<g
   id="g16">
</g>
<g
   id="g18">
</g>
<g
   id="g20">
</g>
<g
   id="g22">
</g>
<g
   id="g24">
</g>
<g
   id="g26">
</g>
<g
   id="g28">
</g>
<g
   id="g30">
</g>
<g
   id="g32">
</g>
<g
   id="g34">
</g>
<g
   id="g36">
</g>
</svg>